<svg width="42" height="42" viewBox="0 0 42 42" fill="none" xmlns="http://www.w3.org/2000/svg">
<path d="M32.1429 8H9.79911C8.8125 8 8 8.87054 8 9.91518V32.1429C8 33.1875 8.8125 34 9.79911 34H32.1429C33.1295 34 34 33.1875 34 32.1429V9.91518C34 8.87054 33.1295 8 32.1429 8ZM15.8348 30.2857H12.0045V17.9241H15.8348V30.2857ZM13.9196 16.183C12.6429 16.183 11.6562 15.1964 11.6562 13.9777C11.6562 12.7589 12.6429 11.7143 13.9196 11.7143C15.1384 11.7143 16.125 12.7589 16.125 13.9777C16.125 15.1964 15.1384 16.183 13.9196 16.183ZM30.2857 30.2857H26.3973V24.25C26.3973 22.8571 26.3973 21 24.4241 21C22.3929 21 22.1027 22.567 22.1027 24.192V30.2857H18.2723V17.9241H21.9286V19.6071H21.9866C22.5089 18.6205 23.7857 17.5759 25.6429 17.5759C29.5312 17.5759 30.2857 20.1875 30.2857 23.4955V30.2857Z" fill="#A6A6A6"/>
</svg>
