<svg xmlns="http://www.w3.org/2000/svg" width="960" height="829" viewBox="0 0 960 829">
  <path fill="none" stroke="#F1F0FF" d="M959.7537.2743L415.5967 830.7533M951.7693.2743L407.6123 830.7533M943.785.2743L399.628 830.7533M935.8016.2743L391.6436 830.7533M927.8172.2743L383.6592 830.7533M919.8328.2743L375.6748 830.7533M911.8484.2743L367.6914 830.7533M903.8641.2743L359.7071 830.7533M895.8807.2743L351.7227 830.7533M887.8963.2743L343.7383 830.7533M879.9119.2743L335.7539 830.7533M871.9276.2743L327.7706 830.7533M863.9432.2743L319.7862 830.7533M855.9588.2743L311.8018 830.7533M847.9754.2743L303.8174 830.7533M839.991.2743L295.833 830.7533M832.0067.2743L287.8497 830.7533M824.0223.2743L279.8653 830.7533M816.0379.2743L271.8809 830.7533M808.0545.2743L263.8965 830.7533M800.0701.2743L255.9121 830.7533M792.0858.2743L247.9288 830.7533M784.1014.2743L239.9444 830.7533M776.117.2743L231.96 830.7533M768.1336.2743L223.9756 830.7533M760.1492.2743L215.9912 830.7533M752.1649.2743L208.0069 830.7533M744.1805.2743L200.0235 830.7533M736.1961.2743L192.0391 830.7533M728.2127.2743L184.0547 830.7533M720.2283.2743L176.0703 830.7533M712.244.2743L168.086 830.7533M704.2596.2743L160.1026 830.7533M696.2752.2743L152.1182 830.7533M688.2908.2743L144.1338 830.7533M680.3074.2743L136.1494 830.7533M672.3231.2743L128.1651 830.7533M664.3387.2743L120.1817 830.7533M656.3543.2743L112.1973 830.7533M648.3699.2743L104.2129 830.7533M640.3865.2743L96.2285 830.7533M632.4022.2743L88.2442 830.7533M624.4178.2743L80.2608 830.7533M616.4334.2743L72.2764 830.7533M608.449.2743L64.292 830.7533M600.4656.2743L56.3076 830.7533M592.4813.2743L48.3233 830.7533M584.4969.2743L40.3389 830.7533M576.5125.2743L32.3555 830.7533M568.5281.2743L24.3711 830.7533M560.5447.2743L16.3867 830.7533M552.5604.2743L8.4024 830.7533M544.576.2743L.418 830.7533" transform="translate(0 -1)"/>
</svg>
