<svg width="42" height="42" viewBox="0 0 42 42" fill="none" xmlns="http://www.w3.org/2000/svg">
<path d="M30.956 15.9639C31.9344 15.241 32.8151 14.3735 33.5 13.3614C32.6194 13.747 31.592 14.0361 30.5646 14.1325C31.6409 13.506 32.4237 12.5422 32.8151 11.3373C31.8366 11.9157 30.7113 12.3494 29.5861 12.5904C28.6076 11.5783 27.2867 11 25.819 11C22.9814 11 20.682 13.2651 20.682 16.0602C20.682 16.4458 20.7309 16.8313 20.8288 17.2169C16.5724 16.9759 12.7564 14.9518 10.2123 11.9157C9.77202 12.6386 9.5274 13.506 9.5274 14.4699C9.5274 16.2048 10.408 17.747 11.8268 18.6627C10.9951 18.6145 10.1634 18.4217 9.47847 18.0361V18.0843C9.47847 20.5422 11.2397 22.5663 13.5881 23.0482C13.1967 23.1446 12.7074 23.241 12.2671 23.241C11.9247 23.241 11.6311 23.1928 11.2886 23.1446C11.9247 25.1687 13.8327 26.6145 16.0832 26.6627C14.3219 28.012 12.1204 28.8313 9.72309 28.8313C9.28278 28.8313 8.89139 28.7831 8.5 28.7349C10.7505 30.1807 13.4413 31 16.3767 31C25.819 31 30.956 23.3373 30.956 16.6386C30.956 16.3976 30.956 16.2048 30.956 15.9639Z" fill="#A6A6A6"/>
</svg>
